<svg xmlns="http://www.w3.org/2000/svg" version="1.0" preserveAspectRatio="xMidYMid meet" viewBox="91 166 326 166">

<g transform="translate(0.000000,500.000000) scale(0.100000,-0.100000)" fill="#000000" stroke="none">
<path d="M1250 3333 c-8 -3 -88 -78 -177 -166 l-163 -162 0 -647 c0 -574 2 -648 16 -662 14 -14 91 -16 698 -16 517 0 685 3 694 12 9 9 12 164 12 638 l0 626 -193 192 -193 192 -340 -1 c-186 0 -346 -3 -354 -6z m588 -92 c8 -5 12 -66 14 -181 l3 -175 193 -3 192 -2 0 -555 0 -555 -425 0 -425 0 2 243 3 242 290 3 c211 2 292 6 297 15 12 18 9 52 -4 65 -17 17 -649 17 -666 0 -9 -9 -12 -87 -12 -290 l0 -278 -150 0 -150 0 0 239 0 240 183 180 182 181 306 0 c271 0 308 2 313 16 10 25 7 42 -10 58 -13 14 -58 16 -336 16 l-322 0 -151 -150 c-83 -82 -154 -150 -158 -150 -4 0 -7 127 -7 283 l0 282 138 137 c75 75 146 138 157 141 33 7 531 6 543 -2z m229 -156 c57 -58 103 -107 103 -109 0 -2 -49 -4 -110 -5 l-110 -2 0 111 c0 60 3 110 7 110 4 0 53 -47 110 -105z" fill="#16a34a"/>
<path d="M2570 2540 l0 -320 65 0 65 0 0 104 0 104 98 4 c120 4 181 30 227 96 27 39 30 52 30 116 0 62 -4 78 -27 114 -54 81 -120 102 -320 102 l-138 0 0 -320z m324 171 c20 -19 26 -34 26 -66 0 -75 -63 -112 -175 -103 l-40 3 -3 99 -3 98 85 -3 c73 -4 88 -7 110 -28z" fill="#16a34a"/>
<path d="M3130 2539 l0 -320 173 3 c195 3 220 11 292 83 66 66 89 124 89 230 0 74 -5 99 -24 140 -65 134 -178 185 -410 185 l-120 0 0 -321z m299 191 c75 -21 121 -94 121 -190 0 -70 -15 -116 -49 -153 -41 -46 -73 -57 -156 -57 l-75 0 0 205 0 205 63 0 c34 0 78 -4 96 -10z" fill="#16a34a"/>
<path d="M3760 2541 l0 -319 65 -4 65 -3 0 128 0 127 120 0 120 0 0 60 0 60 -120 0 -120 0 0 75 0 75 140 0 140 0 0 60 0 60 -205 0 -205 0 0 -319z" fill="#16a34a"/>
</g>
</svg>